<?xml version="1.0" standalone="no"?>
<!DOCTYPE svg PUBLIC "-//W3C//DTD SVG 20010904//EN"
 "http://www.w3.org/TR/2001/REC-SVG-20010904/DTD/svg10.dtd">
<svg version="1.0" xmlns="http://www.w3.org/2000/svg"
 width="528.000000pt" height="528.000000pt" viewBox="0 0 528.000000 528.000000"
 preserveAspectRatio="xMidYMid meet">
<metadata>
Created by potrace 1.14, written by Peter Selinger 2001-2017
</metadata>
<g transform="translate(0.000000,528.000000) scale(0.100000,-0.100000)"
fill="#000000" stroke="none">
<path d="M363 5092 l-133 -3 -1 -47 c0 -26 0 -91 1 -145 1 -79 -1 -97 -12 -91
-10 6 -10 5 -1 -7 17 -21 17 -963 0 -952 -9 5 -9 4 0 -8 17 -21 17 -963 0
-952 -9 5 -9 4 0 -8 17 -21 17 -963 0 -952 -9 5 -9 4 0 -8 17 -21 17 -963 0
-952 -9 5 -9 4 0 -8 8 -10 11 -107 11 -348 0 -183 2 -335 5 -337 2 -2 45 -5
95 -6 52 -1 89 -5 86 -10 -4 -5 4 -4 15 4 18 11 23 11 31 -2 6 -9 10 -10 10
-3 0 9 56 12 215 12 164 0 214 -3 209 -12 -5 -8 -3 -8 7 0 17 17 43 17 33 1
-6 -10 -5 -10 7 -1 19 15 203 18 194 2 -4 -6 3 -5 14 3 18 11 23 11 31 -2 6
-9 10 -10 10 -3 0 9 27 12 95 12 62 0 93 -4 89 -10 -3 -6 4 -5 15 3 18 11 23
11 31 -2 6 -9 10 -10 10 -3 0 9 56 12 215 12 164 0 214 -3 209 -12 -5 -8 -3
-8 7 1 7 6 19 12 27 12 8 0 10 -5 6 -12 -6 -10 -5 -10 7 -1 19 15 443 17 433
2 -3 -6 4 -5 15 3 18 11 23 11 31 -2 6 -9 10 -10 10 -3 0 9 56 12 215 12 164
0 214 -3 209 -12 -5 -8 -3 -8 7 0 17 17 43 17 33 1 -6 -10 -5 -10 7 -1 19 15
443 17 433 2 -3 -6 4 -5 15 3 18 11 23 11 31 -2 6 -9 10 -10 10 -3 0 9 56 12
215 12 164 0 214 -3 209 -12 -5 -8 -3 -8 7 0 17 17 43 17 33 1 -6 -10 -5 -10
7 -1 19 15 443 17 433 2 -3 -6 4 -5 15 3 18 11 23 11 31 -2 6 -9 10 -10 10 -3
0 9 56 12 215 12 164 0 214 -3 209 -12 -5 -8 -3 -8 7 0 17 17 43 17 33 1 -6
-10 -5 -10 7 -1 10 8 57 12 137 11 68 0 125 2 128 5 6 6 7 4807 1 4814 -5 5
-4468 10 -4684 5z"/>
</g>
</svg>
