<svg xmlns="http://www.w3.org/2000/svg" version="1.1" width="600px" height="600px" viewBox="0 0 200 200" style="overflow:hidden!important;"><g id="svga-group-wrapper"><g id="svga-group-backs-single"><path id="SvgjsPath10978" d="M0 0h200v200H0V0z" fill="#ecf0f1" stroke-width="none" opacity="1"></path></g><g id="svga-group-humanwrap-move" transform="matrix(1,0,0,1,0,0)"><g id="svga-group-humanwrap"><g id="svga-group-hair-back-move" transform="matrix(1,0,0,1,0,0)"><g id="svga-group-hair-back"></g></g><g id="svga-group-humanbody-back"><path id="SvgjsPath10923" d="M166.5 181.1c-10.9-6.6-27.6-8.4-35-12.1-4.9-2.5-9.1-4.7-8.9-17.8s1.9-42.4 1.9-42.4H75.4s1.6 29.4 1.9 42.4-4.2 15.6-8.9 17.8c-7.4 3.5-24.1 5.4-35 12.1-10.8 6.6-10 18.9-10 18.9v19.7h153.3V200c-.1 0 .7-12.3-10.2-18.9z" fill="#f0c7b1" stroke-width="none" opacity="1"></path></g><g id="svga-group-chinshadow-single"><path id="SvgjsPath10919" d="M124.5 108.9H75.4c.1 1.8 1.6 29.7 1.9 42.3.1 2.6-.1 4.8-.3 6.6 11.9 10.2 23 9 23 9s11.1 1.2 23-8.9c-.3-1.8-.4-4-.4-6.6.2-12.8 1.8-40.6 1.9-42.4z" fill="#d19271" stroke-width="none" opacity="0.65"></path></g><g id="svga-group-humanbody-front"><path id="SvgjsPath10924" d="M78.7 156.8c.5 4.8 1.7 9.4 3.1 13.9.8 2.3 1.6 4.6 2.6 6.9.8 2 1.7 4.2 3.1 5.9.3.4 1 0 .9-.5-.5-2.2-1.6-4.3-2.4-6.4-.9-2.2-1.7-4.4-2.5-6.6-1.5-4.4-2.8-8.9-4.1-13.3-.2-.4-.8-.3-.7.1zm41.3-1c-1.3 8.2-3.9 16.1-5.4 24.2-.1.4.4.5.6.2 3.1-7.7 4.1-16.1 5.1-24.3-.1-.2-.3-.2-.3-.1zm-25.8 11.9c-.9 3.6 1.9 8.6 6.2 7.6.5-.1.4-.8 0-1-1.4-.5-2.9-.9-3.9-2.1-1.1-1.2-1.5-2.9-1.4-4.5 0-.4-.8-.5-.9 0z" fill="#d19271" stroke-width="none" opacity="1"></path><path id="SvgjsPath10925" d="M177.3 219.7c-.1-6.6-.3-13.1-.3-19.7l-.3-.3c.1 0 .1 0 .2.1s.1.2.1.1v-1.4c0-.5-.1-.9-.1-1.4-.1-.9-.3-1.9-.5-2.8-.5-1.8-1.1-3.6-2-5.3-1.7-3.4-4.4-6.2-7.7-8.1-3.6-2.2-7.6-3.8-11.6-5.1-4-1.3-8.1-2.4-12.1-3.5-4-1.2-8.1-2.2-11.8-4.2-1.9-1-3.6-2.1-4.8-3.6-1.2-1.6-1.9-3.5-2.3-5.5-.8-4-.4-8.2-.3-12.4l.7-12.6 1.5-25.2.1-1.4h-1.4c-8.2 0-16.4 0-24.6.1l-24.6.3h-.9l.1.9c.8 11.9 1.6 23.8 2.1 35.7.1 3 .3 6 .2 8.9-.1 2.9-.4 5.9-1.6 8.6-.6 1.3-1.4 2.5-2.4 3.5s-2.3 1.8-3.6 2.4c-2.6 1.3-5.4 2.2-8.3 3-5.8 1.5-11.6 2.8-17.3 4.7-2.8.9-5.7 2-8.4 3.4-1.3.7-2.7 1.4-4 2.4-1.3.9-2.4 1.9-3.5 3.1-2.1 2.3-3.6 5.2-4.5 8.1-.5 1.5-.8 3-1 4.6-.1.8-.1 1.6-.1 2.4v2.3l-.2 17.9v1.3h1.4l38.3.2c12.8.1 25.5.1 38.3 0 12.8-.1 25.6-.1 38.3-.3 12.8-.2 25.6-.5 38.3-.7h.6v-.5zm-77.2-1.6H61.8l-37 .2-.1-16.6v-2.2c0-.7 0-1.4.1-2.1.1-1.4.4-2.8.8-4.2.8-2.7 2.1-5.3 3.9-7.5.9-1.1 2-2.1 3.1-2.9 1.1-.9 2.4-1.6 3.7-2.3 2.6-1.4 5.3-2.5 8.1-3.5 5.6-2 11.4-3.4 17.1-5.1 2.9-.8 5.8-1.7 8.5-3.1 1.3-.7 2.7-1.5 3.8-2.6 1.1-1.1 2-2.4 2.6-3.9 1.2-2.9 1.5-5.9 1.6-8.9 0-3-.1-6-.2-9l-1.3-34.8 23.5.4c7.7.1 15.4.1 23.1.1-.4 7.9-.8 15.9-1.1 23.8-.2 4.2-.2 8.4-.3 12.6 0 4.2-.2 8.5.8 12.8.5 2.1 1.3 4.2 2.8 6 1.4 1.7 3.4 2.9 5.3 3.8 3.9 1.9 8 2.8 12.1 3.8s8.2 2 12.2 3.3c4 1.3 7.9 2.8 11.5 5 3.2 1.9 5.8 4.7 7.5 8 .9 1.6 1.5 3.4 1.9 5.2.2.9.4 1.8.4 2.7.1.5.1.9.1 1.4V200l-.3 19c-12.6-.2-25.1-.5-37.7-.7-12.7-.1-25.5-.1-38.2-.2z" fill="#c27b55" stroke-width="none" opacity="1"></path></g><g id="svga-group-clothes-single"><path id="SvgjsPath10781" d="M129.8 165.2c-1.6-4-5.9-16.6-5.9-16.6-1.3 3.6-4.1 12-9 16-4.3 3.6-13 11.4-14.8 13-1.8-1.6-10.5-9.4-14.8-13-4.9-4-7.6-12.2-8.9-15.8 0 0-4.4 12.4-6 16.5 0 0 6.3 26.5 8.6 31.5 0 0 .1-.1.2-.4.3 2.6.7 5.1 1.3 7.3 2.9 10.7 8.6 17.9 8.6 17.9h21.7s10.3-13.7 11.6-23.8c.2-1.9.4-3.9.4-5.8 2.8-9.3 7-26.8 7-26.8z" fill="#ffffff" stroke-width="none" opacity="1"></path><path id="SvgjsPath10782" d="M96 196.2s-5.3-10.6-5.9-13.8c0 0 11.2-12.1 20.3 1.1l-5.2 12.7s3.3 17.4 3.3 23.9H92.1s1.3-16.5 3.9-23.9z" fill="#222222" stroke-width="none" opacity="1"></path><path id="SvgjsPath10783" d="M110.8 183.2c-2.7-3.9-5.9-6.1-9.5-6.4-6.3-.5-11.4 5-11.6 5.2-.1.1-.2.3-.1.4.5 3 5.1 12.2 5.8 13.7-2.6 7.5-3.8 23.2-3.9 23.8 0 .1 0 1.3.1 1.4s.2.2.4.2h16.4c.3 0 .5-1.2.5-1.5 0-6.3-2.9-22-3.3-23.9l5.2-12.5c.1 0 .1-.2 0-.4zm-6.1 12.8c0 .1-.1.2 0 .3 0 .2 3.1 16.5 3.3 23.3H92.6c.2-2.9 1.6-16.7 3.9-23.2.1-.1 0-.3 0-.4-.1-.1-5.1-10-5.8-13.4.9-.9 5.5-5.1 10.6-4.7 3.2.2 6.1 2.1 8.6 5.7l-5.2 12.4z" fill="#005a83" stroke-width="none" opacity="1"></path><path id="SvgjsPath10784" d="M97.1 188.9c-.9 2.4 1.6 7 1.6 7 .5-4.1-.7-9.4-1.6-7zm6.4-1.6c-1.7.7-1.8 7.9-1.8 7.9 1.8-2.8 3.5-8.6 1.8-7.9zm-.8 14.9c0 1.1.2 5.5 1.4 4.1 1.2-1.4-1.2-7.8-1.2-7.8s-.2 2.6-.2 3.7zm-3.7 2.9c-.5 3.9 1.4 5.2 1.7 2.4.3-2.8-.3-9.2-.3-9.2s-.9 2.9-1.4 6.8zm-2.2-1.4c.7 1.4 1.4-3.3 1.2-5 0-.1-1.9 3.6-1.2 5z" fill="#000000" stroke-width="none" opacity="1"></path><path id="SvgjsPath10785" d="M71.3 157.1s-10.6 8-16.5 10.6l2.3 2.6s-22.3 5.2-26.9 6.7-6.7 3.6-6.7 3.6-1.7-1.3-4.2.2-3.6 39.4-3.6 39.4h72.6s-10.9-23.9-17.6-58.4c.1-.1.6-2.6.6-4.7zm112.9 63s-1.1-37.9-3.6-39.4-4.2-.2-4.2-.2-2.1-2.1-6.7-3.6-26.9-6.7-26.9-6.7l2.3-2.6c-5.9-2.5-16.5-10.6-16.5-10.6 0 2.1.6 4.6.6 4.6-6.7 34.5-17.6 58.4-17.6 58.4l72.6.1z" fill="#1e78a2" stroke-width="none" opacity="1"></path><path id="SvgjsPath10786" d="M184.1 198c-.3-3.7-.6-7.4-1.1-11-.3-1.9-.5-3.7-1.1-5.6-.1-.2-.2-.5-.4-.8-.1-.1-.2-.3-.4-.4l-.4-.2c-.4-.2-.9-.4-1.5-.5-.9-.2-1.8-.1-2.7.3-2.4-1.9-5.1-2.9-7.8-3.6-2.9-.8-5.8-1.4-8.6-2.1l-16.7-4 2-2.1.1-.1c.1-.2 0-.4-.2-.5-1.5-.6-2.9-1.5-4.2-2.3-1.4-.9-2.7-1.8-4.1-2.7-2.7-1.9-5.3-3.8-7.9-5.8-.1-.1-.3-.2-.4-.2l-1.2.3s-3-7.8-3.7-8.7c-.6 1.3-1.4 4.2-4 9.4-1.1 1.9-3 4.5-5.5 6.5-2.7 2.1-5.2 4.3-7.7 6.5-2.2 1.9-4.3 3.9-6.4 5.8-2.1-1.9-4.2-3.9-6.4-5.8-2.5-2.2-5.1-4.4-7.7-6.4-7.4-6.9-7.1-10-9.2-15-.3-.5-.5-.5-.5-.5l-3.8 7.9c-.2-.1-1.4 0-1.6.1-2.6 2-5.2 3.9-7.8 5.8-1.3.9-2.7 1.8-4.1 2.7-1.4.9-2.8 1.7-4.2 2.3 0 0-.1 0-.1.1-.2.1-.2.4 0 .5l2 2.1-16.7 4c-2.9.7-5.7 1.4-8.6 2.1-2.8.7-5.5 1.8-7.8 3.6-.9-.4-1.8-.5-2.7-.3-.5.1-1 .3-1.5.5-.1.1-.2.1-.4.2l-.4.4c-.2.3-.3.5-.4.8-.6 1.9-.9 3.7-1.1 5.6-.5 3.7-.8 7.4-1.1 11-.5 7.4-.9 14.7-1.2 22.1 0 .6.5 1.1 1.1 1.1 12.2 0 24.9.5 37.1.3l36.2.1c-.1-.4-.8-2.1-.9-2.4l-.3-.9-.7-1.8c-.4-1.2-.9-2.4-1.3-3.6-.8-2.4-1.7-4.8-2.5-7.2-1.2-3.5-2.2-7-3.3-10.5.9-1.6 1.9-3.2 3-4.7.8-1 1.6-1.9 2.4-2.8.4-.4.9-.8 1.4-1.2l1.5-1.2c1-.8 1.9-1.7 2.8-2.7.4-.5.9-1 1.2-1.5.2-.2.4-.5.6-.6.1-.1.3-.3.6-.4.9-.5 2.1-.9 3.3-1.2.6-.1 5.7-.1 6.3 0 1.2.3 2.3.6 3.3 1.2.2.1.4.3.6.4l.6.6 1.2 1.5c.9 1 1.8 1.8 2.8 2.7l1.5 1.2c.5.4.9.8 1.4 1.2.9.8 1.7 1.8 2.4 2.8 1.1 1.5 2.1 3.1 3 4.7-1.1 3.5-2.1 7-3.3 10.5-.8 2.4-1.6 4.8-2.5 7.2-.4 1.2-.9 2.4-1.3 3.6l-.7 1.8-.3.9c-.1.3-1 1.9-1.1 2.4l36.7-.7c12.2.2 24.5.4 36.7.3.6 0 1-.5 1-1.1-.4-7.3-.8-14.6-1.3-22zM16.9 219c.2-7 .4-14 .8-20.9.2-3.7.5-7.3.9-10.9.2-1.8.4-3.7.9-5.3.1-.2.1-.4.2-.5 0-.1.1-.1 0-.1 0 0 .1-.1.2-.1.4-.2.7-.4 1.1-.4.7-.2 1.6-.1 2.1.2.2.1.5.1.6 0 1.8 2.7 3.1 5.6 4 8.6.5 1.6.8 3.2 1 4.9.2 1.7.5 3.3.6 5l1.1 10.1c.4 3.1.8 6.3 1.3 9.4H16.9zm34.8.4-19.6-.3c.2-3.2.2-6.4.1-9.6-.1-3.4-.3-6.8-.7-10.3-.2-1.7-.4-3.4-.8-5.1-.3-1.7-.8-3.4-1.4-5.1-1.2-3.1-3-5.9-5.4-8.1 1-.9 2.2-1.7 3.5-2.3 1.3-.6 2.6-1.1 4.1-1.6 2.8-.8 5.7-1.6 8.5-2.3 5.7-1.4 11.5-2.9 17.2-4.1.6.6 1.2 1.1 2 1.6-.2.2-.5.3-.7.5-1.2.8-2.5 1.6-3.7 2.3-.3.2-.5.6-.4 1 1.5 3.8 3.1 7.6 4.7 11.4 1.6 3.8 3.3 7.5 5 11.2 1.8 3.7 3.6 7.4 5.5 11 1 1.8 1.9 3.6 3 5.4 1 1.7 2 3.3 3.1 4.9l-24-.5zm33.5-6.2c.5 1.2 1 2.4 1.5 3.5.3.6.5 1.2.8 1.7l.4.9c.2.3.2.6.4.8l-12.4-.2c-1.8-3.6-3.4-7.2-5-10.8L66 197.7l-5-11.2-4.8-10.6c2.3-1.5 4.5-3.2 6.6-4.9 1.1-.9 2.3-1.9 3.4-2.9s2.2-1.9 3.3-3c-2.4 1.7-4.8 3.4-7.3 5-.9.6-1.7 1.2-2.6 1.8-.5-.8-1.1-1.5-1.7-2.2-.7-.6-1.3-1.2-2.2-1.7l-.3-.3c1.4-.6 2.7-1.3 4-2 1.4-.8 2.8-1.7 4.2-2.5 2.3-1.5 4.6-3 6.8-4.6-.1 1-.3 1.9-.5 2.9v.3c.9 5 2 10 3.3 15 1.2 5 2.6 9.9 4.1 14.7s3.2 9.7 5 14.5c.9 2.5 1.9 4.8 2.9 7.2zm11.2-36.1c-1.3.4-2.5.8-3.8 1.5-.3.2-.6.4-.9.7-.2.3-.4.5-.6.8-.4.5-.8 1-1.1 1.5-.8.9-1.6 1.8-2.5 2.6-.4.4-.9.9-1.4 1.3-.5.4-1 .9-1.4 1.4-.9 1-1.6 2-2.4 3.1-.9 1.4-1.8 2.9-2.5 4.3-.3-1-.6-2.1-.9-3.1-1.4-4.9-2.7-9.8-3.9-14.7-1.2-4.7-2.2-9.4-3.2-14.1.1-.3.1-.6.2-1 .2-1.4 1.8-4.9 2.8-7.6l1.5-4.7c0 .1.6 2.1 1.5 5.2 1.4 3.6 4.6 8.6 7.2 10.9 2.5 2.2 4.7 4.6 7.2 6.9l5.5 4.9c-.5-.1-.9 0-1.3.1zm21.3 12.8c-.7-1.1-1.5-2.1-2.4-3.1-.4-.5-.9-.9-1.4-1.4-.5-.4-.9-.8-1.4-1.3-.9-.9-1.8-1.7-2.5-2.6-.4-.5-.7-.9-1.1-1.5-.2-.3-.4-.5-.6-.8-.3-.3-.6-.5-.9-.7-1.2-.7-2.5-1.1-3.8-1.5-.4-.1-.8-.2-1.3-.3l5.5-4.9c2.5-2.2 4.6-4.4 7.1-6.6 5-4.9 6.6-9.1 7.5-11.9 1.1-3.5 1.3-4.1 1.3-4.2 0 0 1.1 3.2 2.1 6.1.7 2 2.3 6.7 2.3 7-1 4.7-2 9.4-3.2 14.1-1.2 4.9-2.5 9.8-3.9 14.7-.3 1.1-.6 2.1-.9 3.1-.7-1.3-1.5-2.8-2.4-4.2zm-6 30.2c.2-.1.3-.5.4-.8l.4-.9c.3-.6.5-1.2.8-1.7.5-1.2 1-2.3 1.5-3.5 1-2.4 2-4.7 2.8-7.1 1.8-4.8 3.5-9.6 5-14.5s2.9-9.8 4.1-14.7c1.3-4.9 2.3-9.9 3.3-15v-.3c-.2-.9-.4-1.9-.5-2.9 2.2 1.6 4.5 3.1 6.8 4.6 1.4.9 2.8 1.7 4.2 2.5 1.3.7 2.6 1.4 3.9 2l-.3.3c-.8.5-1.5 1.1-2.1 1.7-.6.6-1.2 1.4-1.7 2.2-.9-.6-1.8-1.1-2.6-1.8-2.4-1.6-4.8-3.4-7.3-5l3.3 3c1.1 1 2.2 1.9 3.4 2.9 2.1 1.7 4.2 3.4 6.6 4.9l-4.8 10.6-5 11.2L129 209c-1.6 3.6-3.2 7.3-5 10.8l-12.3.3zm36.6-.7-24.2.5c1.1-1.6 2.2-3.2 3.1-4.9 1.1-1.8 2-3.6 3-5.4 1.9-3.6 3.7-7.3 5.5-11 1.7-3.7 3.4-7.4 5.1-11.2 1.6-3.8 3.2-7.5 4.7-11.4.1-.4 0-.8-.4-1-1.2-.7-2.5-1.5-3.7-2.3-.2-.2-.5-.3-.7-.5.8-.4 1.4-1 2-1.6 5.8 1.3 11.5 2.7 17.2 4.1 2.9.7 5.7 1.5 8.5 2.3 1.4.4 2.8.9 4.1 1.6 1.3.6 2.5 1.4 3.5 2.3-2.4 2.2-4.1 5.1-5.4 8.1-.7 1.6-1.1 3.4-1.4 5.1-.3 1.7-.6 3.4-.8 5.1-.4 3.4-.6 6.8-.7 10.3-.1 3.2-.1 6.4.1 9.6-6.4 0-12.9.1-19.5.3zm19.7-.3c.5-3.1.9-6.3 1.3-9.4l1.1-10.1c.2-1.7.4-3.4.6-5 .2-1.7.6-3.3 1.1-4.9.9-3 2.2-5.9 4-8.6.2.1.4.1.6 0 .5-.3 1.4-.4 2.1-.2.4.1.8.2 1.1.4.1 0 .2.1.2.1v.1c.1.1.1.3.2.5.5 1.6.7 3.5.9 5.3.4 3.6.6 7.3.9 10.9.4 7 .7 13.9.8 20.9-4.8-.1-9.8-.1-14.9 0z" fill="#005a83" stroke-width="none" opacity="1"></path></g><g id="svga-group-head" transform="matrix(1,0,0,1,0,0)"><g id="svga-group-ears-left-move" transform="matrix(1,0,0,1,0,0)"><g id="svga-group-ears-left"><path id="SvgjsPath10811" d="M60.8 95.5s-3.2-5.5-5-8c-1.8-2.4-4.1-5-4.9-.8s-.9 12.5.3 18.1 6.2 11.3 8.3 11.3c2.2 0 3.6-8.4 3.6-11.4 0-2.8-1.1-7.1-2.3-9.2z" fill="#f0c7b1" stroke-width="none" opacity="1"></path><path id="SvgjsPath10812" d="M62.6 94.8c.3.8-.2 4.4 0 5.3.4 1.6.8 3.3.9 5 0 1.7-.1 3.3-.4 4.8-.3 1.5-.6 3-1.1 4.3-.3.7-.6 1.3-1 1.9-.2.3-.4.5-.7.7-.2.1-.3.1-.5.1s-.3 0-.5-.1c-.6-.2-1.2-.5-1.7-.9-.3-.2-.5-.5-.8-.7l-.8-.8c-1-1.1-1.9-2.3-2.7-3.7-.8-1.4-1.5-2.9-2-4.6-.1-.4-.2-.8-.3-1.3-.1-.4-.2-.8-.2-1.3-.1-.8-.2-1.7-.3-2.5-.2-1.7-.3-3.3-.3-4.9-.1-3.3-.1-6.5.4-9.6.2-.8.3-1.6.8-2.2l.2-.2c.1-.1.1-.1.2-.1.1-.1.3-.1.5-.2.2 0 5.7.6 6.5 1.9.7 1.5 3.5 8.3 3.8 9.1zM55.8 88c-.9-1.1-1.8-2.2-2.7-2.7-.5-.2-.8-.2-1.1.2-.3.4-.5 1-.6 1.6-.3 1.4-.5 2.9-.6 4.4s-.2 3.1-.2 4.7.1 3.2.3 4.9c.1.8.2 1.6.4 2.4l.3 1.2c.1.4.2.8.3 1.1.5 1.5 1.2 2.9 2 4.1s1.7 2.4 2.6 3.3c.9.9 1.9 1.8 2.8 2 .8.3 1.4-.9 1.9-2.1s.8-2.6 1.1-4 .6-2.9.6-4.4-.2-3.2-.5-4.8c-.3-1.6-.8-3.2-1.6-4.6-1.6-2.4-3.3-5-5-7.3z" fill="#e1ac8f" stroke-width="none" opacity="1"></path><path id="SvgjsPath10813" d="M53.7 91.4c1.6 1.3 3.1 3.5 3.8 6.1 0 .2-.1.2-.2.1 0 0 0-.1-.1-.1-.5-.5-1-1.1-1.5-1.1-.8.1-.7 1.6-.4 2.7.4 1.6 1.1 3 1.8 4.4.1.2 0 .3-.1.2-1-1.5-2.7-4.8-2.4-6.9.2-1.9 1.5-1 2.3-.1-.6-1.3-1.3-2.6-2.1-3.6-1.1-1.3-3.4-3.3-3.8-.7 0 .2-.2.1-.2-.1-.2-2.5 1.8-1.7 2.9-.9z" fill="#d19271" stroke-width="none" opacity="1"></path><path id="SvgjsPath10814" d="M57.8 106.7c1 2.6-.6 3.3-1.7 2.2-1.8-1.7-3.1-5.6-3.4-8.8 0-.2.2-.2.2 0 .3 1.8.7 3.5 1.4 5.1.4 1 .9 2 1.5 2.7.4.5.8.9 1.2 1 .9-.1 1.2-.8.8-2.2-.1 0 0-.1 0 0z" fill="#d19271" stroke-width="none" opacity="1"></path></g></g><g id="svga-group-ears-right-move" transform="matrix(1,0,0,1,0,0)"><g id="svga-group-ears-right"><path id="SvgjsPath10815" d="M139.2 95.5s3.2-5.5 5-8c1.8-2.4 4.1-5 4.9-.8s.9 12.5-.3 18.1-6.2 11.3-8.3 11.3c-2.2 0-3.6-8.4-3.6-11.4s1.1-7.1 2.3-9.2z" fill="#f0c7b1" stroke-width="none" opacity="1"></path><path id="SvgjsPath10816" d="M141.3 85.8c.8-1.4 6.3-2 6.5-1.9.2 0 .3.1.5.2.1 0 .1.1.2.1l.2.2c.5.6.7 1.4.8 2.2.5 3.1.5 6.4.4 9.6-.1 1.6-.2 3.3-.3 4.9-.1.8-.2 1.7-.3 2.5-.1.4-.1.8-.2 1.3-.1.4-.2.8-.3 1.3-.5 1.7-1.2 3.2-2 4.6s-1.7 2.6-2.7 3.7c-.2.3-.5.5-.8.8-.3.2-.5.5-.8.7-.5.4-1.1.8-1.7.9-.2 0-.3.1-.5.1s-.3-.1-.5-.1c-.3-.2-.5-.4-.7-.7-.4-.5-.7-1.2-1-1.9-.5-1.4-.9-2.8-1.1-4.3-.3-1.5-.4-3.1-.4-4.8.1-1.7.4-3.4.9-5 .2-.8-.3-4.5 0-5.3.2-.9 3-7.7 3.8-9.1zm-2.1 9.7c-.7 1.4-1.2 3-1.6 4.6-.3 1.6-.5 3.3-.5 4.8.1 1.5.4 3 .6 4.4.3 1.4.6 2.8 1.1 4s1.1 2.3 1.9 2.1c.9-.2 1.9-1 2.8-2 .9-1 1.8-2.1 2.6-3.3.8-1.3 1.5-2.6 2-4.1.1-.4.2-.8.3-1.1l.3-1.2c.2-.8.3-1.6.4-2.4.2-1.6.3-3.3.3-4.9s0-3.2-.2-4.7c-.1-1.5-.3-3.1-.6-4.4-.2-.7-.4-1.3-.6-1.6-.3-.3-.7-.4-1.1-.2-.9.5-1.8 1.6-2.7 2.7-1.7 2.1-3.4 4.7-5 7.3z" fill="#e1ac8f" stroke-width="none" opacity="1"></path><path id="SvgjsPath10817" d="M146.3 91.4c-1.6 1.3-3.1 3.5-3.8 6.1 0 .2.1.2.2.1 0 0 0-.1.1-.1.5-.5 1-1.1 1.5-1.1.8.1.7 1.6.4 2.7-.4 1.6-1.1 3-1.8 4.4-.1.2 0 .3.1.2 1-1.5 2.7-4.8 2.4-6.9-.2-1.9-1.5-1-2.3-.1.6-1.3 1.3-2.6 2.1-3.6 1.1-1.3 3.4-3.3 3.8-.7 0 .2.2.1.2-.1.2-2.5-1.8-1.7-2.9-.9z" fill="#d19271" stroke-width="none" opacity="1"></path><path id="SvgjsPath10818" d="M142.2 106.7c-1 2.6.6 3.3 1.7 2.2 1.8-1.7 3.1-5.6 3.4-8.8 0-.2-.2-.2-.2 0-.3 1.8-.7 3.5-1.4 5.1-.4 1-.9 2-1.5 2.7-.4.5-.8.9-1.2 1-.9-.1-1.2-.8-.8-2.2.1 0 0-.1 0 0z" fill="#d19271" stroke-width="none" opacity="1"></path></g></g><g id="svga-group-faceshape-wrap"><g id="svga-group-faceshape-single"><path id="SvgjsPath10903" d="M143.2 82v-.3c-1.3-29.9-20.7-46.4-43.2-46.4S58.1 51.8 56.9 81.7v.3c0 3 0 30.2 5.7 41.9C77.7 155 100 153.7 100 153.7s22.3 1.4 37.5-29.8c5.7-11.7 5.7-38.9 5.7-41.9z" fill="#f0c7b1" stroke-width="none" opacity="1"></path><path id="SvgjsPath10904" d="M137.5 123.9c5.7-11.7 5.7-38.9 5.7-41.9v-.3c-1.3-29.9-20.7-46.4-43.2-46.4S58.1 51.8 56.9 81.7v.3c0 3 0 30.2 5.7 41.9C77.7 155 100 153.7 100 153.7s22.3 1.4 37.5-29.8zM87.7 148c-4.2-1.7-8.5-5.5-11.8-8.8l-2.4-2.5-2.2-2.8c-.8-.9-1.4-1.9-2.1-2.9-.6-1-1.3-1.9-2-3l-1.7-3.1c-.6-1-1.2-2.1-1.6-3.1-1-2-1.6-4.3-2.3-6.6-1.2-4.6-2-9.4-2.6-14.2-.6-4.8-1-9.7-1.2-14.5-.1-2.4-.2-4.9 0-7.2.1-1.2.1-2.4.3-3.6l.6-3.6.1-.9.2-.9.5-1.7.5-1.7c.1-.6.4-1.1.6-1.7.4-1.1.8-2.3 1.3-3.4l1.6-3.2c2.3-4.2 5.3-8 8.8-11.1 3.5-3.1 7.6-5.6 12-7.2s9-2.5 13.6-2.7 9.3.3 13.8 1.5c8.9 2.4 17 7.9 22.6 15.7l2 3c.6 1 1.1 2.1 1.7 3.2.6 1.1 1 2.2 1.5 3.3.4 1.1.9 2.2 1.2 3.4l1 3.5c.2 1.2.5 2.4.7 3.6l.3 1.8.2 1.9c.1 1.5.2 3.8.2 5.3-.1 7.1-.6 14.2-1.8 21.2-.6 3.8-1.4 7.5-2.5 11.2-.3.9-.5 1.8-.9 2.7-.4.9-.6 1.8-1 2.6-.7 1.6-1.8 3.2-2.7 4.9-.5.8-.9 1.6-1.5 2.4l-1.6 2.3c-.6.8-1 1.6-1.6 2.3l-1.8 2.1c-1.1 1.5-2.5 2.7-3.7 4.1-.6.7-3.3 3-4.1 3.5 0 0-2.3 1.8-7.3 4.5-1.2.6-2.4 1.2-3.7 1.6-4.3 1.7-9.1 3.7-21.2-1.2z" fill="#c27b55" stroke-width="none" opacity="1"></path></g></g><g id="svga-group-mouth-single-move" transform="matrix(1,0,0,1,0,0)"><g id="svga-group-mouth-single" transform="matrix(0.7999992000000002,0,0,0.7999992000000002,20.064913328179912,26.05927553185117)"><path id="SvgjsPath11003" d="M84.13 121.38s.02 2.5 1.11 4.36c0 0 4.32 4.53 9.9 8.4.19.14 8.24 1.16 10.36.41 0 0 8.36-5.19 10.19-9.12 0 0 .66-1.94.41-3.27 0 0-6.34 1.76-9.33 2.2-2.99.45-10.62 0-14.41-.57-3.8-.57-7.27-1.92-8.23-2.41z" fill="#000000" stroke-width="none" opacity="1" transform="translate(0 2)"></path><path id="SvgjsPath11004" d="M106.75 124.35c-2.99.45-10.62 0-14.41-.57-3.79-.57-7.26-1.92-8.22-2.41 0 0 .02 2.5 1.11 4.36l.19.19c1.51 1.07 3.66 2.31 6.2 2.99 5.05 1.36 15.17 1.9 22.14-1.92.58-.32 1.09-.63 1.57-.95.14-.21.25-.43.34-.64 0 0 .66-1.94.41-3.27.01.02-6.34 1.79-9.33 2.22z" fill="#ffffff" stroke-width="none" opacity="1" transform="translate(0 2)"></path><path id="SvgjsPath11005" d="M116.59 121.88c.16-.2 0-.49-.28-.48-1.71.52-2.76.73-4.08 1.09-1.18.32-9.11 1.01-11.89.99-9.17-.2-13.39-1.67-16.1-2.4-.22-.06-.44.18-.34.34-.21 1.26 1.06 4.43 1.06 4.45 2.41 3.32 6.15 6.2 9.6 8.45 2.45 1.59 9.23 1.33 10.89.76 2.36-.89 4.78-3.17 6.36-4.68 1.46-1.4 3.54-4 4.23-5.1.29-.44.46-.97.57-1.48.13-.52.3-1.38-.02-1.94zm-5.54 8.28c-2.42 2.24-5.67 3.61-5.82 3.62-1.9.17-3.8.26-5.72.19-1.36-.05-4.19-.4-4.31-.48-1.83-.93-3.63-2.15-5.26-3.53-1.59-1.34-3.52-2.92-4.56-4.42-.65-1.11-1.02-2.25-.86-3.72 4.7 2.47 10.68 3.54 15.92 3.58 2.85.02 5.63-.36 8.4-.92 2.13-.43 5.04-.89 7-2.08-.03.32-.02.66-.07.97-.09.56.23 2.27-4.72 6.79z" fill="#da7c87" stroke-width="none" opacity="1" transform="translate(0 2)"></path></g></g><g id="svga-group-eyes-left-move" transform="matrix(1,0,0,1,0,0)"><g id="svga-group-eyes-left"><g id="svga-group-eyesback-left"><path id="SvgjsPath10857" d="M89.4 95.2s-.9-2.5-2.2-3.9c-1.4-1.4-5.5-3.6-10.2-1.8-4.7 1.8-6.8 4.7-6.8 4.7s.7 1.8 3.4 3.2c2.7 1.5 6.4 2.7 10.4 1.4s5.4-3.6 5.4-3.6z" fill="#ffffff" stroke-width="none" opacity="1"></path></g><g id="svga-group-eyesiriswrapper-left" transform="matrix(1,0,0,1,0,0)"><g id="svga-group-eyesiriscontrol-left" transform="matrix(1,0,0,1,0,0)"><g id="svga-group-eyesiris-left"><path id="SvgjsPath10940" d="M80.1 88.1c3 0 5.5 2.4 5.5 5.5S83.1 99 80.1 99s-5.5-2.4-5.5-5.5 2.4-5.4 5.5-5.4z" fill="#4e60a3" stroke-width="none" opacity="1"></path><path id="SvgjsPath10941" d="M80.1 99.3c-3.2 0-5.7-2.6-5.7-5.7 0-3.2 2.6-5.7 5.7-5.7 3.2 0 5.7 2.6 5.7 5.7s-2.6 5.7-5.7 5.7zm0-11c-2.9 0-5.2 2.3-5.2 5.2s2.3 5.2 5.2 5.2 5.2-2.3 5.2-5.2c-.1-2.8-2.4-5.2-5.2-5.2z" fill="#253984" stroke-width="none" opacity="1"></path><path id="SvgjsPath10942" d="M80.1 90.6c1.6 0 2.9 1.3 2.9 2.9s-1.3 2.9-2.9 2.9-2.9-1.3-2.9-2.9 1.2-2.9 2.9-2.9z" fill="#000000" stroke-width="none" opacity="1"></path><path id="SvgjsPath10943" d="M78.7 90.5c.6 0 1 .5 1 1s-.5 1-1 1-1-.5-1-1 .5-1 1-1zm3.4 4.7c.2 0 .4.2.4.4s-.2.4-.4.4-.4-.2-.4-.4.2-.4.4-.4z" fill="#ffffff" stroke-width="none" opacity="1"></path></g></g></g><g id="svga-group-eyesfront-left"><path id="SvgjsPath10865" d="M69.4 94.6c0 6.4 4.7 11.5 10.6 11.5s10.6-5.2 10.6-11.5S85.9 83.1 80 83.1s-10.6 5.1-10.6 11.5zm.8-.4s2.1-2.8 6.8-4.7c4.7-1.8 8.9.4 10.2 1.8 1.4 1.4 2.2 3.9 2.2 3.9S88 97.5 84 98.8c-4 1.3-7.7.1-10.4-1.4-2.7-1.4-3.4-3.2-3.4-3.2z" fill="#f0c7b1" stroke-width="none" opacity="1"></path><path id="SvgjsPath10866" d="M80.6 85.4c5.1.1 9.5 4.5 9 9.7 0 .1-.1.1-.1.1l.1.1c-.6 2.6-3.3 5.2-5.9 5.8-.2 0-.3-.2-.1-.3 1.2-.6 2.4-1.2 3.4-2.2 1-1 1.7-2.2 2.4-3.4l.1-.1V95c-.7-5.5-5-10.1-11-8.8-2.5.7-4.5 2.1-6.2 3.8-1.4 1.6-2.2 3.5-3.6 5.1-.1.2-.4 0-.3-.2 1.2-5 7.1-9.7 12.2-9.5z" fill="#e1ac8f" stroke-width="none" opacity="1"></path><path id="SvgjsPath10867" d="M67.5 96.9c.9-.7 1.8-1.4 2.6-2.1 4.5 6.5 14.1 6.7 19.3 1 .1 0 .2-.1.2-.2l.2-.2c.2-.2 0-.6-.2-.6-.5-4.2-5-6.7-9-6.6-5.2.1-10.8 3.8-13.8 7.9-.4.5.2 1.1.7.8zm3.1-2.5c2.1-1.8 4.3-3.6 7.2-4.4 4.8-1.4 9.5.5 11.2 5.2-5.5 5.5-13.4 4.8-18.4-.8z" fill="#000000" stroke-width="none" opacity="1"></path></g></g></g><g id="svga-group-eyes-right-move" transform="matrix(1,0,0,1,0,0)"><g id="svga-group-eyes-right"><g id="svga-group-eyesback-right"><path id="SvgjsPath10858" d="M110.6 95.2s.9-2.5 2.2-3.9c1.4-1.4 5.5-3.6 10.2-1.8 4.7 1.8 6.8 4.7 6.8 4.7s-.7 1.8-3.4 3.2c-2.7 1.5-6.4 2.7-10.4 1.4s-5.4-3.6-5.4-3.6z" fill="#ffffff" stroke-width="none" opacity="1"></path></g><g id="svga-group-eyesiriswrapper-right" transform="matrix(1,0,0,1,0,0)"><g id="svga-group-eyesiriscontrol-right" transform="matrix(1,0,0,1,0,0)"><g id="svga-group-eyesiris-right"><path id="SvgjsPath10944" d="M119.9 88.1c3 0 5.5 2.4 5.5 5.5S123 99 119.9 99s-5.5-2.4-5.5-5.5 2.5-5.4 5.5-5.4z" fill="#4e60a3" stroke-width="none" opacity="1"></path><path id="SvgjsPath10945" d="M119.9 99.3c-3.2 0-5.7-2.6-5.7-5.7 0-3.2 2.6-5.7 5.7-5.7 3.2 0 5.7 2.6 5.7 5.7s-2.5 5.7-5.7 5.7zm0-11c-2.9 0-5.2 2.3-5.2 5.2s2.3 5.2 5.2 5.2 5.2-2.3 5.2-5.2c0-2.8-2.3-5.2-5.2-5.2z" fill="#253984" stroke-width="none" opacity="1"></path><path id="SvgjsPath10946" d="M119.9 90.6c1.6 0 2.9 1.3 2.9 2.9s-1.3 2.9-2.9 2.9-2.9-1.3-2.9-2.9 1.3-2.9 2.9-2.9z" fill="#000000" stroke-width="none" opacity="1"></path><path id="SvgjsPath10947" d="M118.6 90.5c.6 0 1 .5 1 1s-.5 1-1 1-1-.5-1-1 .5-1 1-1zm3.4 4.7c.2 0 .4.2.4.4s-.2.4-.4.4-.4-.2-.4-.4.2-.4.4-.4z" fill="#ffffff" stroke-width="none" opacity="1"></path></g></g></g><g id="svga-group-eyesfront-right"><path id="SvgjsPath10868" d="M120 83.1c-5.9 0-10.6 5.2-10.6 11.5s4.7 11.5 10.6 11.5 10.6-5.2 10.6-11.5-4.8-11.5-10.6-11.5zm6.4 14.3c-2.7 1.5-6.4 2.7-10.4 1.4-4-1.3-5.4-3.6-5.4-3.6s.9-2.5 2.2-3.9c1.4-1.4 5.5-3.6 10.2-1.8 4.7 1.8 6.8 4.7 6.8 4.7s-.7 1.8-3.4 3.2z" fill="#f0c7b1" stroke-width="none" opacity="1"></path><path id="SvgjsPath10871" d="M119.4 85.4c-5.1.1-9.5 4.5-9 9.7 0 .1.1.1.1.1l-.1.1c.6 2.6 3.3 5.2 5.9 5.8.2 0 .3-.2.1-.3-1.2-.6-2.4-1.2-3.4-2.2-1-1-1.7-2.2-2.4-3.4l-.1-.1V95c.7-5.5 5-10.1 11-8.8 2.4.5 4.5 1.9 6.1 3.7 1.4 1.6 2.2 3.5 3.6 5.1.1.2.4 0 .3-.2-1.1-4.9-7-9.6-12.1-9.4z" fill="#e1ac8f" stroke-width="none" opacity="1"></path><path id="SvgjsPath10872" d="M133.3 96.1c-3-4.1-8.6-7.8-13.8-7.9-4-.1-8.5 2.4-9 6.6-.2 0-.4.3-.2.6l.2.2c0 .1.1.2.2.2 5.2 5.7 14.8 5.5 19.3-1 .8.7 1.7 1.4 2.6 2.1.4.3 1-.3.7-.8zm-22.3-.9c1.8-4.7 6.4-6.6 11.2-5.2 2.9.8 5 2.6 7.2 4.4-5 5.6-12.9 6.3-18.4.8z" fill="#000000" stroke-width="none" opacity="1"></path></g></g></g><g id="svga-group-facehighlight-single"></g><g id="svga-group-eyebrows-left-move" transform="matrix(1,0,0,1,0,0)"><g id="svga-group-eyebrows-left-rotate" transform="matrix(1,1.7453292519943295e-9,-1.7453292519943295e-9,1,1.434357415064369e-7,-1.3711057533782878e-7)"><g id="svga-group-eyebrows-left"><path id="SvgjsPath10757" d="M65.5 85.3c.1-.5.4-.9.6-1.4.2-.5.5-1.1.8-1.5-.1-.2-.1-.5.1-.7.4-.6.8-1.1 1.2-1.8.3-.6.5-1.3.9-1.8.5-.7 1.8-.6 2.8-.4.5-.1 1.1-.1 1.6 0 .2 0 .9.1 1.3.3h.1c1.2-.2 2.4-.3 3.6.3.7 0 1.4 0 2.1.1 1.1.1 2.3.1 3.3.4H85.6c.7-.1 1.4-.1 2.2-.2h.1c.3-.1.5-.2.8-.3.2-.1.3 0 .4.1.1 0 .2-.1.3-.1.1 0 .2 0 .2.1.5-.2 1-.4 1.5-.5h.1c.2-.2.5-.1.4.2-.1.6-.3 1-.7 1.5-.3.4-.6.8-1 1.1.3 0 .7-.1 1-.1.1-.1.3-.2.4-.3.4-.4.9-.9 1.2-1.4.1-.2.4.1.3.2-.1.1-.2.2-.2.4v.1c0 .1-.1.1-.1.1v.2c-.2.7-.6 1.4-1.1 2 .1.1.1.2.1.3-.4 1.1-1.6 2.1-2.7 2.7-.2.1-.5.1-.6-.1-1.6.2-3.5.2-5.3.2-1.3 0-3 .1-4.2-.6-.8.1-1.7-.2-2.6-.4-1 .5-2.1.1-3.1-.2-.4-.1-.7-.3-1.1-.4-.3.1-.7.1-1.1.1h-.5c-.3.3-.6.5-1 .8-.5.3-1 .7-1.6.8h-.2c-.3.2-.6.4-.9.5-.1.2-.2.4-.4.6-.1.1-.2.1-.3.1-.2.2-.4.4-.7.4-.2 0-.3-.2-.3-.3 0-.5.3-.8.6-1.1z" fill="#2a232b" stroke-width="none" opacity="1"></path><path id="SvgjsPath10758" d="M84.8 84.3c1.4-.6 2.8-1 4.1-1.8 1.4-.8 2.5-1.9 3.7-3.1.1-.1.3 0 .2.2-1.6 2.4-4.8 4.8-7.8 5-.3.1-.4-.2-.2-.3zm.4.6c1.9-.4 3.6-.9 5.2-1.9.1-.1.2.1.1.2-1.5 1.2-3.4 2-5.3 2-.1-.1-.1-.3 0-.3zm-2.8-1.3c1.1-.7 2.2-1.3 3.3-2.1s1.9-1.8 2.8-2.7c.1-.1.2 0 .2.1-1.1 2.1-3.8 4.3-6.2 4.8-.2.1-.2-.1-.1-.1zm-5.6.7c2.6-1.4 5-2.5 6.5-5.2.1-.1.2 0 .2.1-1.2 2.6-3.8 4.6-6.6 5.3-.2 0-.3-.2-.1-.2zm-3.5-1.1c.7-.7 1.6-1.3 2.2-2.1.7-.9 1.1-1.9 1.7-2.8.1-.1.3-.1.2.1-.2 1.9-2.2 4.5-4 5.1-.1.1-.2-.1-.1-.3zm-2.6-.1c1.6-1.5 3-2.8 3.9-4.8.1-.1.3 0 .2.1-.7 2-1.9 4.1-3.9 5-.1 0-.3-.2-.2-.3zm-5.6 1.8c.9-.6 1.9-.9 2.9-1.3.8-.3 1.6-.7 2.5-.4.1 0 .1.2 0 .2-.9-.1-1.8.4-2.7.8-.8.3-1.7.8-2.6.9-.2.1-.3-.1-.1-.2z" fill="#3a353a" stroke-width="none" opacity="1"></path><path id="SvgjsPath10759" d="M64 87c-.2.2 0 .4.2.4h.1c.1.1.3.1.4 0 0-.1.1-.1.1-.1 1.1-.4 2.1-1.2 3-1.8.9-.5 1.8-1 2.6-1.7 2.9.8 6.2.9 9.2 1.2 2.9.2 6 .4 9 .2.1.1.2.1.3.1.1 0 .1-.1.1-.1h.3c.2 0 .2-.2.2-.3 2.1-1.5 3.5-3.7 3.7-6.3 0-.1 0-.1-.1-.1 0-.1-.2-.2-.3-.1l-1.2 1.2-.1.1c.3-.4.4-1 .5-1.5 0-.3-.3-.3-.4-.1-.2.6-.4 1.1-.8 1.6-.3.4-.9.8-1.1 1.2-.1.1 0 .2.1.2.2 0 .5-.1.7-.3h.1c.6-.2 1-.5 1.5-.9.2-.2.5-.5.7-.8-.6 2.3-1.9 4.2-3.9 5.4-1.6-.1-3.1-.1-4.7-.2 1-.5 2-1.3 2.7-1.9 1.3-1.1 2.3-2.5 3-4.1.7-.1 1.3-.3 1.9-.6.1-.1.1-.2-.1-.2-1 0-1.9.3-2.9.4-.9.1-1.8.1-2.7.1-1.8 0-3.6-.1-5.4-.3-3.6-.3-7.6-1.1-11.2-.7-.2 0-.3.2-.3.4-1.1 1.4-1.9 3-2.7 4.6-.7 1.4-1.6 3-2 4.5l-.5.5zm1.5-1.1c.6-1.2 1-2.4 1.6-3.6.8-1.5 1.6-2.9 2.3-4.5 2 .1 4 0 5.9.2 1.9.2 3.8.4 5.7.5 1.9.2 3.8.3 5.7.2.8 0 1.8-.1 2.7-.2-.9 1.4-1.9 2.6-3.2 3.6-.7.5-1.4 1-2.2 1.4-.6.3-1.2.4-1.7.8h-.9c1.6-.9 3.1-2.4 3.6-4.1.1-.2-.2-.3-.3-.2-.6.7-1.1 1.6-1.8 2.3-.7.7-1.5 1.3-2.3 1.9h-.7c-1.5-.1-3.1-.3-4.6-.4.9-.8 1.6-2 1.8-3.1 0-.1-.2-.2-.2-.1-.3.6-.6 1.2-1 1.7-.3.5-.8.9-1.2 1.3-1.1-.2-2.2-.4-3.3-.5.1-.1 0-.4-.2-.3-.2.1-.4.2-.7.3 0 0-.1 0-.1.1-1 .5-1.9 1.1-2.8 1.6-.8.4-1.4.7-2.1 1.1z" fill="#1b141c" stroke-width="none" opacity="1"></path></g></g></g><g id="svga-group-eyebrows-right-move" transform="matrix(1,0,0,1,0,0)"><g id="svga-group-eyebrows-right-rotate" transform="matrix(1,1.7453292519943295e-9,-1.7453292519943295e-9,1,1.4380691482074326e-7,-2.121298052770726e-7)"><g id="svga-group-eyebrows-right"><path id="SvgjsPath10760" d="M134.5 85.3c-.1-.5-.4-.9-.6-1.4-.2-.5-.5-1.1-.8-1.5.1-.2.1-.5-.1-.7-.4-.6-.9-1.1-1.2-1.8-.3-.6-.5-1.3-.9-1.8-.5-.7-1.8-.6-2.8-.4-.5-.1-1.1-.1-1.6 0-.2 0-.9.1-1.3.3h-.1c-1.2-.2-2.4-.3-3.6.3-.7 0-1.4 0-2.1.1-1.1.1-2.3.1-3.3.4H114.4c-.7-.1-1.4-.1-2.2-.2h-.1c-.3-.1-.5-.2-.8-.3-.2-.1-.3 0-.4.1-.1 0-.2-.1-.3-.1-.1 0-.2 0-.2.1-.5-.2-1-.4-1.5-.5h-.1c-.2-.2-.5-.1-.4.2.1.6.3 1 .7 1.5.3.4.6.8 1 1.1-.3 0-.7-.1-1-.1-.1-.1-.3-.2-.4-.3-.4-.4-.9-.9-1.2-1.4-.1-.2-.4.1-.3.2.1.1.2.2.2.4v.1c0 .1.1.1.1.1v.2c.2.7.6 1.4 1.1 2-.1.1-.1.2-.1.3.4 1.1 1.6 2.1 2.7 2.7.2.1.5.1.6-.1 1.8.1 3.7.1 5.6.1 1.3 0 3 .1 4.2-.6.8.1 1.7-.2 2.6-.4 1 .5 2.1.1 3.1-.2.4-.1.7-.3 1.1-.4.4.1.7.1 1.1.1h.5c.3.3.6.5 1 .8.5.3 1 .7 1.6.8h.2c.3.2.6.4.9.5.1.2.2.4.4.6.1.1.2.1.3.1.2.2.4.4.7.4.2 0 .3-.2.3-.3-.3-.4-.6-.7-.9-1z" fill="#2a232b" stroke-width="none" opacity="1"></path><path id="SvgjsPath10761" d="M115.2 84.3c-1.4-.6-2.8-1-4.1-1.8-1.4-.8-2.5-1.9-3.7-3.1-.1-.1-.3 0-.2.2 1.6 2.4 4.8 4.8 7.8 5 .3.1.4-.2.2-.3zm-.4.6c-1.9-.4-3.6-.9-5.2-1.9-.1-.1-.2.1-.1.2 1.5 1.2 3.4 2 5.3 2 .1-.1.1-.3 0-.3zm2.8-1.3c-1.1-.7-2.2-1.3-3.3-2.1s-1.9-1.8-2.8-2.7c-.1-.1-.2 0-.2.1 1.1 2.1 3.8 4.3 6.2 4.8.2.1.2-.1.1-.1zm5.6.7c-2.6-1.4-5-2.5-6.5-5.2-.1-.1-.2 0-.2.1 1.2 2.6 3.8 4.6 6.6 5.3.2 0 .3-.2.1-.2zm3.5-1.1c-.7-.7-1.6-1.3-2.2-2.1-.7-.9-1.1-1.9-1.7-2.8-.1-.1-.3-.1-.2.1.2 1.9 2.2 4.5 4 5.1.1.1.2-.1.1-.3zm2.6-.1c-1.6-1.5-3-2.8-3.9-4.8-.1-.1-.3 0-.2.1.7 2 1.9 4.1 3.9 5 .1 0 .3-.2.2-.3zm5.6 1.8c-.9-.6-1.9-.9-2.9-1.3-.8-.3-1.6-.7-2.5-.4-.1 0-.1.2 0 .2.9-.1 1.8.4 2.7.8.8.3 1.7.8 2.6.9.2.1.3-.1.1-.2z" fill="#3a353a" stroke-width="none" opacity="1"></path><path id="SvgjsPath10762" d="M135.6 86.7c-.4-1.6-1.3-3.1-2-4.5-.8-1.6-1.6-3.2-2.7-4.6 0-.2-.1-.4-.3-.4-3.7-.5-7.6.3-11.2.7-1.8.2-3.6.3-5.4.3-.9 0-1.8-.1-2.7-.1-1-.1-1.9-.4-2.9-.4-.1 0-.2.2-.1.2.6.3 1.2.5 1.9.6.7 1.6 1.7 3 3 4.1.7.6 1.7 1.4 2.7 1.9-1.6.1-3.1.1-4.7.2-2-1.2-3.4-3.2-3.9-5.4.2.3.5.5.7.8.4.4.9.8 1.5.9h.1c.2.2.4.3.7.3.1 0 .2-.1.1-.2-.2-.5-.8-.8-1.1-1.2-.4-.5-.6-1.1-.8-1.6-.1-.2-.4-.2-.4.1 0 .5.2 1 .5 1.5l-.1-.1-1.2-1.2c-.1-.1-.3 0-.3.1l-.1.1c.2 2.6 1.6 4.9 3.7 6.3 0 .1 0 .3.2.3h.3c.1 0 .1.1.1.1.1.1.2 0 .3-.1 3 .2 6 0 9-.2s6.3-.3 9.2-1.2c.8.6 1.8 1.1 2.6 1.7.9.6 1.9 1.3 3 1.8 0 .1.1.1.1.1.1.2.3.2.4 0h.1c.2.1.4-.2.2-.4-.2-.3-.3-.4-.5-.5zm-3-1.9c-.9-.6-1.8-1.2-2.8-1.6 0 0-.1 0-.1-.1l-.6-.3c-.2-.1-.3.2-.2.3-1.1.1-2.2.3-3.3.5-.4-.4-.8-.8-1.2-1.3-.4-.6-.7-1.1-1-1.7-.1-.1-.2 0-.2.1.2 1.1.9 2.3 1.8 3.1-1.5.2-3.1.3-4.6.4h-.7c-.8-.6-1.7-1.2-2.3-1.9-.7-.7-1.2-1.5-1.8-2.3-.1-.2-.4 0-.3.2.5 1.7 2 3.2 3.6 4.1h-.9c-.5-.4-1.1-.6-1.7-.8-.8-.4-1.5-.9-2.2-1.4-1.3-1-2.3-2.2-3.2-3.6.9.1 1.8.2 2.7.2 1.9.1 3.8 0 5.7-.2 1.9-.2 3.8-.4 5.7-.5 2-.2 4-.1 5.9-.2.6 1.6 1.5 3 2.3 4.5.6 1.1 1 2.4 1.6 3.6-1-.4-1.6-.7-2.2-1.1z" fill="#1b141c" stroke-width="none" opacity="1"></path></g></g></g><g id="svga-group-beardwrap"><g id="svga-group-beard-single-move" transform="matrix(1,0,0,1,0,0)"><g id="svga-group-beard-single"></g></g></g><g id="svga-group-mustache-single-move" transform="matrix(1,0,0,1,0,0)"><g id="svga-group-mustache-single"></g></g><g id="svga-group-nose-single-move" transform="matrix(1,0,0,1,0,0)"><g id="svga-group-nose-single"><path id="SvgjsPath10983" d="M107.41 107.88c1.55 1.26 2.35 2.79 2.47 4.02s-.64 2.35-1.59 2.87c-.96.52-2.59.2-3.74-1.23 0 0-2.31 1.63-3.11 1.83-.8.2-4.67-1-5.74-1.77 0 0-.83 1.53-2.78 1.13s-2.91-2.31-2.43-3.78c.48-1.47 1.59-2.59 2.19-3.07.6-.48 2.63-1.91 4.34-2.39s5.45-1.63 10.39 2.39z" fill="#f0c7b1" stroke-width="none" opacity="1" transform="translate(0 1)"></path><path id="SvgjsPath10984" d="M107.51 107.59c-.16-.15-.45-.01-.38.22.43 1.36 1.79 2.15 2.25 3.5.32.95.04 2.1-.72 2.76-1.18 1.03-2.63.6-3.71-.28-.05-.04-.11-.04-.17-.02.44-.2.91-.34 1.45-.33.26 0 .32-.33.13-.46-1.65-1.14-2.99.87-4.3 1.57-2.67 1.45-4.99-1.78-7.65-1.6-.21.01-.25.3-.05.37.33.12.65.26.98.42-.46.21-.9.47-1.39.56-1.14.22-2.29-.32-2.87-1.31-1.27-2.13.63-3.92 1.98-5.32.09-.1-.02-.25-.14-.19-2.11 1.14-3.89 4.02-2.26 6.26 1.09 1.49 4.17 2.16 5.13.21 1.52.76 3.06 1.73 4.69 1.82 1.79.09 2.83-1.29 4.24-1.97-.06.04-.08.12-.03.2 1.25 1.82 4 1.58 5.12-.24 1.41-2.29-.66-4.66-2.3-6.17z" fill="#c27b55" stroke-width="none" opacity="1" transform="translate(0 1)"></path><path id="SvgjsPath10985" d="M94.75 106.69c1.2-.53 2.39-1 3.69-1.22 1.29-.22 2.56-.08 3.86-.15.16-.01.18-.22.04-.27-1.59-.58-3.53-.4-5.25.2 1.56-2.44 2.21-5.68 1.65-8.5-.04-.2-.33-.14-.34.05-.11 3.13-.66 5.77-1.83 8.65-.71.29-1.37.63-1.94 1.03-.14.09-.03.27.12.21z" fill="#c27b55" stroke-width="none" opacity="1" transform="translate(0 1)"></path><path id="SvgjsPath10986" d="M105.64 107.55c-2.17-2.46-6.64-2.22-8.92-.1-.27.25-.16.8.23.87 1.18.21 2.31.1 3.5.12 1.43.03 2.34.52 3.46 1.36 1.36 1.02 2.74-1.1 1.73-2.25z" fill="#f8d5c3" stroke-width="none" opacity="1" transform="translate(0 1)"></path></g></g><g id="svga-group-hair-front"><path id="SvgjsPath11031" d="M135.8 66.3c-1 3.3-1 5.1-.9 7.6.1 2.4-1 5.1 1.1 4.8 2.1-.3 4.4-.7 5.7-4.2 1.3-3.5 3-8.2 2.9-10-.1-1.8-3.7-9-3.7-9l-3.3 7.8-1.8 3z" fill="#8c4c00" stroke-width="none" opacity="1"></path><path id="SvgjsPath11032" d="M143.8 74c.4-3.6 1-8.5.2-9.3-.8-.8-5.6 2.2-6 4.8s-.4 7.5-.4 7.5c-.7 2.7-.8 4-.7 5.8.1 1.8-1 3.9.7 3.6.1 0 .2 0 .2-.1-.3 2.3-.1 3.8.2 5.4.3 2.2-.7 4.5 1 4.6s2.7-.6 3.5-3.8c.8-3.2 1.3-6.4 1.4-9.5.1-2.5.2-6.3-.2-8.4.1-.2.1-.4.1-.6zm-81.6 6.8c-.5-1.6-.3-4-1-5.3s-3.5-6.4-3.5-6.4c-.9 1.8-2.3 3.9-2.3 7.1 0 2.7-.4 4.6.2 6.2-.1 1.2-.1 2.4 0 3.1.2 1.1 1.8 8.1 3.4 9.1 1.4.8 2.4-2.9 2.2-6.2 1.6-2.9 1.5-6.1 1-7.6z" fill="#854800" stroke-width="none" opacity="1"></path><path id="SvgjsPath11033" d="M59.3 61c-.9.8-2.3 3.2-2.7 5.7s-.4 5 .1 6.2c.6 1.1 3.6 7.3 5.6 6.3 2-1 1.3-3 1.1-6.2s.1-3.7-.7-6.4c-.8-2.8-3.4-5.6-3.4-5.6zm8.9-37.1c-.7-2.5 3 1.4 2.9 7.5-.1 6.2 1 10.6 3.8 13 2.8 2.4 13.2 11.2 13.2 11.2s-2.4.7-7.2-.7-11-3.5-14.2-7.6-2.3-10.2-.9-13.2c1.4-2.9 3.3-6.9 2.4-10.2zm51.4 32c2.2-.6 5.8-1.7 7.5-.6 1.6 1.1 1.7 4.7 5.3 4.6 3.6-.1 6.8-6.5 6.5-9.4-.2-2.9-2.4-7.8-5.9-9.1-3.5-1.3-3.1 2.6-3.5 4.1-.4 1.5.1 2.5-3.5 5.1-3.5 2.7-6.4 5.3-6.4 5.3z" fill="#8c4c00" stroke-width="none" opacity="1"></path><path id="SvgjsPath11034" d="M131.3 58.4c-.2 1.1-.4 4.4 1.1 6.4s.6 4.3 3.8 3.1c3.2-1.2 6.9-5.4 6.6-8.5-.2-3.1-2.7-10.6-5.3-12-2.7-1.3-2.9 4.6-2.9 4.6l-3.3 6.4zM66.4 40c-1.8 2.1-4.9 2.8-4.2 6.5s5.4 7.7 9.8 8.3 7.7-.1 8.3-.6-9.6-6.2-9.6-6.2l-4.3-8z" fill="#945000" stroke-width="none" opacity="1"></path><path id="SvgjsPath11035" d="M62.8 45.5c-1.2 1-2.4 1.5-2.8 4.4-.4 2.9-.5 3.4 1.2 6.7 1.8 3.3 2 5.3 4.6 4.7 2.6-.6 5.5-2.9 5.2-6.5s-2.7-1.3-3.9-4.5-2.1-3.9-2.1-3.9l-2.2-.9z" fill="#8c4c00" stroke-width="none" opacity="1"></path><path id="SvgjsPath11036" d="M60.9 52.2c-1.2 1.6-2.6 1.9-2.9 4.9s-1.3 2.9.7 6.4c2 3.5 4 7.7 5.9 5.7s1.6-3 1.9-5.4c.3-2.4-.6-4.9-1.7-7-1.2-2.2-3.9-4.6-3.9-4.6zm34.5 5s-6.4 0-10.1-1.8c-3.7-1.8-11.6-8.7-13.2-13.6s.4-14.4-.8-18.9c0 0 1.5 3.8 2.9 5.8s4.4 2 9.2 4.8 9.1 8.5 9.8 12.8 2.2 10.9 2.2 10.9z" fill="#854800" stroke-width="none" opacity="1"></path><path id="SvgjsPath11037" d="M73.7 18.1c-.1-.5-2 6.7 2 10.6S85.9 37 87.2 42.2s.9 6.1 2.3 9.3 3.2 6.4 5.8 7.6c2.6 1.2 7.4-.2 7.4-1s4.1 3.5 6.8 2.2c2.7-1.3 10.3-10.6 11.4-17.2s-2.4-13.6-6.8-14.7-21.6-2.4-25.2-4.3c-3.6-1.9-5.2-3.7-5.6-5.1 0 0-.3 3.4 3 7.4S96 33 96 33s4.7 1.2 5.3 5c0 0-8.2-6.4-15-8.9s-10-.9-12.6-11z" fill="#8c4c00" stroke-width="none" opacity="1"></path><path id="SvgjsPath11038" d="M104.5 60.4s-4.2.3-5.8-4.5S98 42 95.1 37.1s-13.9-7.4-16.7-10.3c-2.7-2.9-3.8-9.3-3.8-9.3s2.7 7.9 6.7 8.4c3.9.5 17.3 4.9 21.7 6.9s9.1 10.3 8.2 15.5-2.5 12.6-6.7 12.1z" fill="#945000" stroke-width="none" opacity="1"></path><path id="SvgjsPath11039" d="M110.6 26.7c.6 0 10.8 2.9 15.9 4.5s17 10.3 4.4 17.8-8 8.8-20.3 10.9c-3.4.6 3.6-5.6 6.3-11 2.7-5.4 2.5-14.6 1-16.6s-7.3-5.6-7.3-5.6z" fill="#854800" stroke-width="none" opacity="1"></path><path id="SvgjsPath11040" d="M96.3 58.9c-3.5-3-5.5-6.7-6.4-11.2-.6-3.2-.3-6.8-1.7-9.7-.9-1.8-2.2-3-3.8-4.1-4.4-3.1-7.9-5-9.8-10.5-.1-.2-.4-.1-.3.1.8 3 2.2 5.6 4.6 7.6 4.2 3.7 8.6 4.8 9.5 11.3.8 6.3 1.6 13.5 7.9 16.8-.1 0 .1-.2 0-.3zm2.5-.6c-6.1-2.7-8.2-8.4-8.7-14.6 0-.2-.3-.2-.3 0-.2 6.2 2.7 12.8 8.9 14.9.2 0 .3-.2.1-.3zm3.5.5c-3.5-4-4.4-8.4-4.3-13.6.1-2.9.5-5.9-1.2-8.5-1.4-2.2-3.7-3.1-5.9-4.2-3.7-1.8-7.3-3.6-11-5.1-.1 0-.2.1-.1.2 3.5 2 7.2 3.7 10.8 5.5 2.8 1.4 5.2 2.4 6.3 6 .6 1.9.2 4.2.2 6.1-.2 5.5 1.1 9.9 5 13.8.1.2.4-.1.2-.2zm3.6-.3c-3.7-3.2-1.6-6.9-1.5-11 0-2.6-.7-4.9-2-7.1-.1-.2-.3 0-.2.1 1.1 2.4 1.7 4.9 1.6 7.5-.1 1.8-.8 3.5-.8 5.3-.1 2.3 1 4 2.8 5.3.1.2.2 0 .1-.1zm18.3-25.6c-.2-.1-.3.2-.1.3.8.3 1.6.5 2.4.8v.1c7.6 6.6-2.7 14.6-7.7 18.1-.2.1 0 .4.2.3 5.3-2.8 16-12.5 8.1-18.3 3.1 1.3 3.8 2 4.7 5.5.8 3.2.4 4.9-2 7.4-1.3 1.4-3.1 2.4-4.8 3.4-4.2 2.5-7.9 5.8-12.2 8.2-.1 0 0 .2.1.1 4.4-2 8.1-5.5 12.3-8 2.8-1.7 5.7-3.5 7.1-6.5 3-6.4-2.7-10-8.1-11.4zm-10.5-3.3c-.1 0-.2.2 0 .2 4.6 1 9.8 2.1 10.5 7.7.5 4-2.1 7.8-4.8 10.4-3.5 3.3-7.4 5.9-8.2 11-.1.4.5.6.6.2 1.5-8.6 12.7-10.9 13.2-20.3.4-6.8-5.6-8.8-11.3-9.2zm-1.1 8.2c-4.2-9.5-17.4-8.6-24.7-14.5-.1-.1-.3.1-.2.2 7.2 6.7 18.9 5.6 24.3 14.6.3.3.8 0 .6-.3zm25.8 14.3c-.1-.2-.4-.2-.4 0 .1 5.3-6.3 8.5-4.5 14 .1.2.4.1.3-.1-1.3-5.4 5.8-8.4 4.6-13.9zm3.1 7.4c0-.2-.3-.2-.4 0-.6 1.8-1 3.6-1.9 5.3-.8 1.4-1.9 2.5-2.6 3.9-1 2-1.1 4-.5 6.1.1.2.4.1.3-.1-.6-4 1.4-5.9 3.3-9.1 1.1-1.9 1.6-4 1.8-6.1zm.7 2c0-.3-.4-.2-.5.1-.2 2.2-.4 4.1-1.2 6.1-.1.2.2.4.3.2 1-1.9 1.7-4.2 1.4-6.4zm0 11.7c0-.2-.3-.2-.4-.1-.6 3-1.6 5.7-2.5 8.6-.6 1.9-.8 3.6 0 5.4.1.3.6.1.5-.2-1-2.8.3-5.1 1.2-7.7.8-1.9 1.2-3.9 1.2-6zm-.2 8c-.5 1.1-.6 2.5-.6 3.7 0 .2.4.2.4 0 0-1.2.3-2.3.5-3.5 0-.3-.2-.5-.3-.2zM86.9 53.1c-4.5-1.6-8.2-3.9-10.6-8.2-2.5-4.4-2.2-9-2.3-13.9 0-.3-.5-.3-.5 0-.9 9.7 2.8 20 13.3 22.4.3.1.3-.2.1-.3zm-8.6-2c-2.7-1.7-5.5-4.7-7-7.5-1.9-3.4-1.8-7.3-1.7-11.1 0-.3-.4-.3-.4 0-.5 7.7 1.7 15 9 18.9.1.1.3-.2.1-.3zm-3.7.1c-3.8-1.8-6.7-4.4-8.4-8.4-.1-.2-.5-.2-.4.1 1.2 4 4.4 7.7 8.6 8.7.2.1.4-.3.2-.4zm-4.3 1.6c-1.7-.7-3.3-1.5-4.8-2.5-.1-.1-.2.1-.1.2 1.5 1 3.1 1.9 4.9 2.5.1-.1.1-.2 0-.2zM66 57.6c-1.6-1.5-3.2-2.8-4.4-4.6-.1-.2-.4 0-.3.2 1.2 1.8 2.7 3.6 4.5 4.7.1 0 .3-.2.2-.3zm55.6-20.7c-.4-3.5-3.1-6.2-6.5-6.7-.2 0-.2.2-.1.2 4.1 1.4 7.1 5.1 5.7 9.7-.8 2.6-3 4.6-4.6 6.7-.1.1.1.2.2.1 2.6-2.9 5.8-5.7 5.3-10zm-10.2-3.3c-.2-.2-.4.1-.2.2 5.6 6.5.8 14.3-1.4 21.2-.1.2.2.3.3.1 2.6-6.6 7.5-15.5 1.3-21.5zm-16.7-.9c-.2 0-.3.2-.1.3 8.9 2.5 3.9 14.4 6.7 20.7.1.2.3 0 .3-.1-1.8-6.4 2.2-18.9-6.9-20.9z" fill="#a36010" stroke-width="none" opacity="1"></path></g><g id="svga-group-glasses-single-move" transform="matrix(1,0,0,1,0,0)"><g id="svga-group-glasses-single"></g></g></g></g></g><rect id="svga-credit-rect" width="200" height="15" x="0" y="185" fill="#ecf0f1" opacity="0.5" style="display: none;"></rect><text id="svga-credit-text" font-family="Avenir Next, Roboto, Helvetica, Arial, sans-serif" font-size="10px" text-anchor="start" font-weight="400" size="10px" anchor="start" weight="400" fill="#333333" x="32.3828125" y="182.6015625" style="display: none;"><tspan id="SvgjsTspan10751" dy="13" x="32.3828125">Created on AvatarMaker.com</tspan></text></g><defs id="SvgjsDefs10698"></defs></svg>